<svg width="100" height="100" viewBox="0 0 100 100" fill="none" xmlns="http://www.w3.org/2000/svg">
<rect x="34" y="28" width="31" height="48" fill="#E9ECF8"/>
<path fill-rule="evenodd" clip-rule="evenodd" d="M57.3958 50.3033C57.3524 50.5778 57.2466 50.839 57.0863 51.0673C56.926 51.2957 56.7154 51.4854 56.4703 51.6221C55.9766 51.9366 55.5447 52.0938 55.1077 52.2511C54.177 52.5681 53.1974 52.8851 52.1613 53.2528C51.0687 53.6206 50.0891 53.9883 49.215 54.2546C48.1249 54.6224 47.0888 54.9394 46.1041 55.3071C45.3633 55.6199 44.6674 56.0274 44.0345 56.5194C43.4458 57.0455 42.9321 57.6478 42.5073 58.3099C42.0703 59.0454 41.7952 59.9939 41.7952 61.0997C41.7952 63.3138 42.3402 64.9978 43.4329 66.0503C44.523 67.1586 46.5438 67.6836 49.5389 67.6836C52.5932 67.6836 54.6654 67.1053 55.7607 65.9463C56.8482 64.7873 57.3932 63.1565 57.3932 61.0515V50.3033H57.3958ZM49.5415 26.9707C54.8891 26.9707 58.815 27.9725 61.3217 30.0268C63.831 32.0303 65.0856 34.6071 65.0856 37.6606V63.6815C65.0856 64.734 64.8696 65.893 64.4891 67.156C64.1035 68.4241 63.3425 69.5806 62.1418 70.6306C60.9977 71.6881 59.4166 72.5834 57.3984 73.2682C55.3802 73.9529 52.7629 74.3207 49.5441 74.3207C46.3304 74.3207 43.708 73.9529 41.6923 73.2682C39.6767 72.5834 38.093 71.6881 36.9489 70.6306C35.8846 69.6844 35.0783 68.4897 34.6042 67.156C34.2185 65.8956 34 64.7365 34 63.684V59.5248C34 57.3107 34.599 55.2564 35.7997 53.4633C37.0003 51.6221 38.6894 50.3591 40.8722 49.5678C41.9623 49.2001 43.2169 48.8323 44.6335 48.3581C46.0527 47.8813 47.3588 47.407 48.6699 46.9886C49.9811 46.565 51.1252 46.1415 52.1048 45.7712C52.6959 45.5379 53.2963 45.3281 53.9044 45.1422L54.8866 44.668C55.2722 44.4575 55.6501 44.1405 56.0332 43.7195C56.4137 43.301 56.7402 42.8267 57.0153 42.2992C57.306 41.728 57.4557 41.0971 57.4524 40.458V38.7714C57.4564 38.1533 57.3249 37.5416 57.0667 36.9784C56.8508 36.3443 56.4137 35.7661 55.8147 35.2411C55.2156 34.7136 54.3955 34.2926 53.416 33.973C52.4338 33.6611 51.1278 33.5013 49.6521 33.5013C46.5977 33.5013 44.5795 34.0846 43.4894 35.2918C42.5639 36.3469 42.0189 37.6631 41.9109 39.1366C41.9109 39.4536 41.6383 39.6641 41.3093 39.6641L34.6582 39.7707C34.5002 39.7713 34.3483 39.7104 34.2356 39.6012C34.123 39.4919 34.0586 39.3432 34.0566 39.1873V37.6657C34.0566 36.1871 34.3317 34.8176 34.9307 33.5013C35.5323 32.1825 36.4604 31.0793 37.7125 30.1282C38.9671 29.1822 40.6048 28.3935 42.5665 27.866C44.4767 27.2319 46.8214 26.9707 49.5466 26.9707H49.5415Z" fill="#0A3871"/>
</svg>
